<?xml version="1.0" encoding="UTF-8"?>
<svg width="104px" height="104px" viewBox="0 0 104 104" version="1.1" xmlns="http://www.w3.org/2000/svg" xmlns:xlink="http://www.w3.org/1999/xlink">
    <!-- Generator: Sketch 46 (44423) - http://www.bohemiancoding.com/sketch -->
    <title>interface-65</title>
    <desc>Created with Sketch.</desc>
    <defs></defs>
    <g id="ALL" stroke="none" stroke-width="1" fill="none" fill-rule="evenodd" stroke-linecap="round" stroke-linejoin="round">
        <g id="Secondary" transform="translate(-416.000000, -1662.000000)" stroke="#868E96" stroke-width="3.5">
            <g id="interface-65" transform="translate(418.000000, 1664.000000)">
                <path d="M78.7335897,57.7080078 C78.4718865,58.9910596 78.6357951,60.2699712 78.7335897,60.6737061 C79.8855718,65.4295444 88.378801,68.07693 87.5664465,80.59375 C87.5664465,94.9511719 66.2189015,100 51.5463918,100 C23.0781057,100 0,77.6142375 0,50 C0,22.3857625 23.0781057,0 51.5463918,0 C72.0985776,0 89.8414726,11.6671635 98.1197869,28.5458593 C100.660438,32.9301758 99.4867191,41.8547392 95.0245651,45.8041992 C86.386014,53.4501953 83.1739157,51.6826652 80.7053399,54.3051758 C80.2057325,54.8359375 78.9651333,56.5728198 78.7335897,57.7080078 Z" id="Layer-1"></path>
                <path d="M51.5463918,28 C56.6706832,28 60.8247423,23.9705627 60.8247423,19 C60.8247423,14.0294373 56.6706832,10 51.5463918,10 C46.4221003,10 42.2680412,14.0294373 42.2680412,19 C42.2680412,23.9705627 46.4221003,28 51.5463918,28 L51.5463918,28 Z M69.5384451,36.3356997 C72.7632662,40.3180221 78.5089611,41.0105253 82.3718139,37.8824488 C86.2346667,34.7543723 86.7518935,28.9902551 83.5270724,25.0079326 C80.3022512,21.0256102 74.5565563,20.333107 70.6937035,23.4611835 C66.8308508,26.58926 66.3136239,32.3533772 69.5384451,36.3356997 L69.5384451,36.3356997 Z M61.467439,69.8408885 C56.8617563,72.08723 54.8945018,77.5298839 57.0734531,81.9973961 C59.2524044,86.4649083 64.7524369,88.2655229 69.3581196,86.0191813 C73.9638023,83.7728398 75.9310568,78.330186 73.7521055,73.8626737 C71.5731542,69.3951615 66.0731217,67.594547 61.467439,69.8408885 L61.467439,69.8408885 Z M41.6253445,69.8408885 C37.0196618,67.594547 31.5196293,69.3951615 29.340678,73.8626737 C27.1617267,78.330186 29.1289812,83.7728398 33.7346639,86.0191813 C38.3403466,88.2655229 43.8403791,86.4649083 46.0193304,81.9973961 C48.1982817,77.5298839 46.2310272,72.08723 41.6253445,69.8408885 L41.6253445,69.8408885 Z M28.1582324,55.8735895 C27.0055176,50.8806332 22.1448946,47.7394686 17.301727,48.857602 C12.4585595,49.9757353 9.46685642,54.9297522 10.6195712,59.9227084 C11.772286,64.9156647 16.632909,68.0568293 21.4760765,66.9386959 C26.3192441,65.8205626 29.3109471,60.8665457 28.1582324,55.8735895 L28.1582324,55.8735895 Z M32.5543384,35.3356997 C35.7791596,31.3533772 35.2619327,25.58926 31.39908,22.4611835 C27.5362272,19.333107 21.7905323,20.0256102 18.5657111,24.0079326 C15.34089,27.9902551 15.8581168,33.7543723 19.7209696,36.8824488 C23.5838224,40.0105253 29.3295173,39.3180221 32.5543384,35.3356997 L32.5543384,35.3356997 Z" id="Layer-2"></path>
            </g>
        </g>
    </g>
</svg>