<?xml version="1.0" encoding="UTF-8"?>
<svg width="104px" height="104px" viewBox="0 0 104 104" version="1.1" xmlns="http://www.w3.org/2000/svg" xmlns:xlink="http://www.w3.org/1999/xlink">
    <!-- Generator: Sketch 46 (44423) - http://www.bohemiancoding.com/sketch -->
    <title>interface-62</title>
    <desc>Created with Sketch.</desc>
    <defs></defs>
    <g id="ALL" stroke="none" stroke-width="1" fill="none" fill-rule="evenodd" stroke-linecap="round" stroke-linejoin="round">
        <g id="Secondary" transform="translate(-8965.000000, -1362.000000)" stroke="#868E96" stroke-width="3.5">
            <g id="interface-62" transform="translate(8967.000000, 1364.000000)">
                <path d="M22.4116679,37.5 L1.88397077,47.7638486 C-0.591023077,49.0013455 -0.586013914,51.0011591 1.88397077,52.2361514 L45.5276971,74.0580146 C48.002691,75.2955115 52.0023182,75.293007 54.4723029,74.0580146 L98.1160292,52.2361514 C100.591023,50.9986545 100.586014,48.9988409 98.1160292,47.7638486 L77.5883321,37.5 L54.4723029,49.0580146 C52.0023182,50.293007 48.002691,50.2955115 45.5276971,49.0580146 L22.4116679,37.5 L22.4116679,37.5 Z" id="Layer-1"></path>
                <path d="M98.1160292,22.7638486 C100.586014,23.9988409 100.591023,25.9986545 98.1160292,27.2361514 L54.4723029,49.0580146 C52.0023182,50.293007 48.002691,50.2955115 45.5276971,49.0580146 L1.88397077,27.2361514 C-0.586013914,26.0011591 -0.591023077,24.0013455 1.88397077,22.7638486 L45.5276971,0.941985383 C47.9976818,-0.293006957 51.997309,-0.295511538 54.4723029,0.941985383 L98.1160292,22.7638486 Z" id="Layer-2"></path>
                <path d="M22.4116679,62.5 L1.88397077,72.7638486 C-0.591023077,74.0013455 -0.586013914,76.0011591 1.88397077,77.2361514 L45.5276971,99.0580146 C48.002691,100.295512 52.0023182,100.293007 54.4723029,99.0580146 L98.1160292,77.2361514 C100.591023,75.9986545 100.586014,73.9988409 98.1160292,72.7638486 L77.5883321,62.5 L54.4723029,74.0580146 C52.0023182,75.293007 48.002691,75.2955115 45.5276971,74.0580146 L22.4116679,62.5 L22.4116679,62.5 Z" id="Layer-3"></path>
            </g>
        </g>
    </g>
</svg>