<?xml version="1.0" encoding="UTF-8"?>
<svg width="104px" height="103px" viewBox="0 0 104 103" version="1.1" xmlns="http://www.w3.org/2000/svg" xmlns:xlink="http://www.w3.org/1999/xlink">
    <!-- Generator: Sketch 46 (44423) - http://www.bohemiancoding.com/sketch -->
    <title>interface-54</title>
    <desc>Created with Sketch.</desc>
    <defs></defs>
    <g id="ALL" stroke="none" stroke-width="1" fill="none" fill-rule="evenodd" stroke-linecap="round" stroke-linejoin="round">
        <g id="Secondary" transform="translate(-6614.000000, -1362.000000)" stroke="#868E96" stroke-width="3.5">
            <g id="interface-54" transform="translate(6616.000000, 1364.000000)">
                <path d="M59.3969692,52.7695531 L14.1421356,98.0243866 C12.5800385,99.5864838 8.78104858,98.3201538 5.65685425,95.1959595 C2.53265992,92.0717652 1.26632996,88.2727753 2.82842712,86.7106781 L48.0832611,41.4558441 C46.521164,43.0179413 47.7874939,46.8169312 50.9116882,49.9411255 C54.0358825,53.0653198 57.8348723,54.3316497 59.3969695,52.7695527 L59.3969692,52.7695531 Z" id="Layers-1"></path>
                <path d="M82.0243862,30.142136 L59.3969696,52.7695526 C57.8348725,54.3316498 54.0358826,53.0653198 50.9116882,49.9411255 C47.7874939,46.8169312 46.521164,43.0179413 48.0832611,41.4558441 L70.7106781,18.8284271 C69.148581,20.3905243 70.4149109,24.1895142 73.5391052,27.3137085 C76.6632996,30.4379028 80.4622894,31.7042328 82.0243866,30.1421357 L82.0243862,30.142136 Z" id="Layers-2"></path>
                <path d="M73.5391052,27.3137085 C76.6632996,30.4379028 80.4622895,31.7042328 82.0243866,30.1421356 C83.5864838,28.5800385 82.3201538,24.7810486 79.1959595,21.6568542 C76.0717652,18.5326599 72.2727753,17.26633 70.7106781,18.8284271 C69.148581,20.3905243 70.4149109,24.1895142 73.5391052,27.3137085 L73.5391052,27.3137085 Z" id="Layers-3"></path>
                <path d="M100,72.5 C91.9918711,72.5 85.5,66.0081289 85.5,58 C85.5,66.0081289 79.0081289,72.5 71,72.5 C79.0081289,72.5 85.5,78.9918711 85.5,87 C85.5,78.9918711 91.9918711,72.5 100,72.5 L100,72.5 Z" id="Layers-4"></path>
                <path d="M58,10 C52.4771525,10 48,5.5228475 48,0 C48,5.5228475 43.5228475,10 38,10 C43.5228475,10 48,14.4771525 48,20 C48,14.4771525 52.4771525,10 58,10 L58,10 Z" id="Layers-5"></path>
                <path d="M25,33.5 C18.0964406,33.5 12.5,27.9035594 12.5,21 C12.5,27.9035594 6.90355937,33.5 0,33.5 C6.90355937,33.5 12.5,39.0964406 12.5,46 C12.5,39.0964406 18.0964406,33.5 25,33.5 L25,33.5 Z" id="Layers-6"></path>
            </g>
        </g>
    </g>
</svg>